M48
;DRILL file {KiCad (2015-05-12 BZR 5652)-product} date Ср 27 май 2015 12:57:54
;FORMAT={-:-/ absolute / metric / decimal}
FMAT,2
METRIC,TZ
T1C0.300
T2C0.600
T3C0.800
T4C0.899
T5C1.016
T6C1.100
T7C1.500
T8C1.700
%
G90
G05
M71
T1
X7.25Y91.25
X9.25Y83.75
X9.8Y57.2
X9.8Y89.
X9.9Y96.2
X12.1Y69.1
X12.903Y69.1
X12.993Y58.4
X13.597Y57.19
X14.269Y68.798
X14.3Y75.7
X14.5Y56.586
X15.2Y58.4
X15.2Y51.772
X15.2Y46.5
X15.75Y44.5
X16.8Y68.8
X17.538Y69.116
X18.341Y69.097
X18.8Y94.1
X19.1Y34.8
X19.1Y32.2
X19.25Y89.25
X19.25Y81.75
X20.8Y32.4
X21.Y20.3
X21.5Y67.9
X22.1Y46.8
X22.25Y32.156
X22.25Y31.353
X22.25Y30.55
X22.3Y26.6
X23.049Y70.643
X23.1Y92.2
X23.5Y43.3
X23.9Y25.6
X24.2Y41.
X24.3Y94.5
X24.5Y86.6
X24.9Y54.3
X26.7Y44.6
X28.5Y53.
X29.2Y20.3
X29.459Y22.03
X29.5Y94.5
X29.6Y81.4
X30.3Y63.9
X30.6Y42.6
X30.917Y22.388
X31.Y64.7
X31.3Y43.195
X31.454Y21.768
X31.673Y65.539
X31.8Y81.4
X31.9Y94.5
X32.Y21.1
X33.1Y59.1
X33.1Y53.
X34.Y67.75
X34.9Y96.1
X34.9Y79.9
X34.9Y55.6
X35.Y94.3
X35.Y81.7
X35.3Y73.8
X35.3Y72.8
X35.3Y67.9
X36.1Y59.095
X36.2Y98.2
X36.2Y78.8
X36.225Y94.327
X36.225Y81.7
X36.8Y54.
X37.1Y63.6
X37.5Y81.7
X37.5Y94.2
X37.8Y87.9
X37.9Y42.7
X39.4Y41.
X39.5Y25.6
X40.231Y94.5
X40.231Y81.5
X40.4Y50.6
X40.5Y43.3
X40.8Y97.1
X40.9Y59.3
X41.2Y28.6
X41.3Y24.4
X41.4Y34.295
X41.6Y37.5
X41.6Y36.
X42.2Y27.9
X42.6Y94.4
X43.1Y27.1
X43.7Y71.7
X43.75Y73.75
X43.8Y50.6
X44.Y32.8
X45.4Y24.4
X45.6Y15.9
X46.1Y23.4
X46.1Y15.1
X46.4Y25.2
X46.6Y29.4
X46.637Y20.162
X46.637Y18.438
X46.646Y47.7
X47.3Y27.3
X47.9Y26.5
X48.2Y60.7
X48.362Y20.162
X48.362Y18.438
X48.5Y15.9
X48.5Y25.8
X50.5Y73.2
X50.5Y56.
X51.Y70.7
X51.5Y35.2
X52.1Y21.1
X54.4Y23.5
X54.9Y41.203
X55.Y51.634
X56.8Y42.
X59.2Y15.3
X60.9Y71.
X60.9Y34.2
T3
X48.6Y95.4
X48.6Y92.9
X48.6Y83.3
X48.6Y80.8
X53.5Y62.44
X53.5Y59.9
X53.5Y57.36
T4
X59.149Y22.
X59.149Y17.6
T5
X3.Y87.66
X3.Y85.12
X3.Y82.58
X3.Y80.04
X3.Y77.5
X3.Y35.54
X3.Y33.
X17.Y49.4
X19.54Y49.4
X22.08Y49.4
X24.62Y49.4
X29.Y49.4
X31.54Y49.4
X34.08Y49.4
X49.Y48.94
X49.Y46.4
X49.Y43.86
X49.Y41.32
X52.6Y51.48
X52.6Y48.94
X52.6Y46.4
X52.6Y43.86
X55.2Y90.54
X55.2Y88.
X55.2Y85.46
T6
X56.125Y62.44
X56.125Y57.36
T7
X53.535Y74.175
X53.535Y67.825
X59.25Y74.175
X59.25Y67.825
X63.06Y74.175
X63.06Y67.825
T8
X58.735Y62.7
X58.735Y57.1
T2
X57.41Y76.08G85X56.01Y76.08
G05
X57.41Y65.92G85X56.01Y65.92
G05
X59.25Y71.7G85X59.25Y70.3
G05
T0
M30
