G04 #@! TF.FileFunction,Soldermask,Bot*
%FSLAX46Y46*%
G04 Gerber Fmt 4.6, Leading zero omitted, Abs format (unit mm)*
G04 Created by KiCad (PCBNEW (2015-05-12 BZR 5652)-product) date Ср 27 май 2015 12:57:51*
%MOMM*%
G01*
G04 APERTURE LIST*
%ADD10C,0.100000*%
%ADD11R,1.727200X2.032000*%
%ADD12O,1.727200X2.032000*%
%ADD13R,1.000000X1.250000*%
%ADD14C,0.899160*%
%ADD15R,1.300000X1.300000*%
%ADD16C,1.300000*%
%ADD17R,2.032000X1.727200*%
%ADD18O,2.032000X1.727200*%
%ADD19R,2.032000X2.032000*%
%ADD20O,2.032000X2.032000*%
%ADD21R,0.700000X1.300000*%
%ADD22C,1.500000*%
%ADD23R,1.200000X2.600000*%
%ADD24R,2.600000X1.200000*%
%ADD25C,1.600000*%
%ADD26C,1.100000*%
%ADD27C,1.700000*%
G04 APERTURE END LIST*
D10*
D11*
X29000000Y49400000D03*
D12*
X31540000Y49400000D03*
X34080000Y49400000D03*
D13*
X51600000Y23000000D03*
X49600000Y23000000D03*
D14*
X59149100Y17600360D03*
X59149100Y21999640D03*
D13*
X44500000Y19300000D03*
X42500000Y19300000D03*
X44500000Y15600000D03*
X42500000Y15600000D03*
X44500000Y23000000D03*
X42500000Y23000000D03*
X49600000Y15500000D03*
X51600000Y15500000D03*
D15*
X48600000Y80800000D03*
D16*
X48600000Y83300000D03*
D15*
X48600000Y92900000D03*
D16*
X48600000Y95400000D03*
D17*
X3000000Y77500000D03*
D18*
X3000000Y80040000D03*
X3000000Y82580000D03*
X3000000Y85120000D03*
X3000000Y87660000D03*
D19*
X3000000Y33000000D03*
D20*
X3000000Y35540000D03*
D17*
X49000000Y41320000D03*
D18*
X49000000Y43860000D03*
X49000000Y46400000D03*
X49000000Y48940000D03*
D17*
X52600000Y51480000D03*
D18*
X52600000Y48940000D03*
X52600000Y46400000D03*
X52600000Y43860000D03*
D11*
X17000000Y49400000D03*
D12*
X19540000Y49400000D03*
X22080000Y49400000D03*
X24620000Y49400000D03*
D17*
X55200000Y90540000D03*
D18*
X55200000Y88000000D03*
X55200000Y85460000D03*
D21*
X52750000Y90600000D03*
X50850000Y90600000D03*
X52750000Y85400000D03*
X50850000Y85400000D03*
D22*
X59250000Y74175000D03*
X59250000Y67825000D03*
X63060000Y74175000D03*
X63060000Y67825000D03*
X53535000Y74175000D03*
X53535000Y67825000D03*
D23*
X59250000Y71000000D03*
D24*
X56710000Y65920000D03*
X56710000Y76080000D03*
D25*
X53500000Y62440000D03*
X53500000Y59900000D03*
X53500000Y57360000D03*
D26*
X56125000Y62440000D03*
X56125000Y57360000D03*
D27*
X58735000Y62700000D03*
X58735000Y57100000D03*
M02*
